<?xml version="1.0" encoding="utf-8" standalone="no"?>
<!DOCTYPE svg PUBLIC "-//W3C//DTD SVG 1.1//EN"
  "http://www.w3.org/Graphics/SVG/1.1/DTD/svg11.dtd">
<svg xmlns:xlink="http://www.w3.org/1999/xlink" width="923.560625pt" height="348.874387pt" viewBox="0 0 923.560625 348.874387" xmlns="http://www.w3.org/2000/svg" version="1.1">
 <metadata>
  <rdf:RDF xmlns:dc="http://purl.org/dc/elements/1.1/" xmlns:cc="http://creativecommons.org/ns#" xmlns:rdf="http://www.w3.org/1999/02/22-rdf-syntax-ns#">
   <cc:Work>
    <dc:type rdf:resource="http://purl.org/dc/dcmitype/StillImage"/>
    <dc:date>2024-04-11T14:31:50.113562</dc:date>
    <dc:format>image/svg+xml</dc:format>
    <dc:creator>
     <cc:Agent>
      <dc:title>Matplotlib v3.7.2, https://matplotlib.org/</dc:title>
     </cc:Agent>
    </dc:creator>
   </cc:Work>
  </rdf:RDF>
 </metadata>
 <defs>
  <style type="text/css">*{stroke-linejoin: round; stroke-linecap: butt}</style>
 </defs>
 <g id="figure_1">
  <g id="patch_1">
   <path d="M 0 348.874387 
L 923.560625 348.874387 
L 923.560625 0 
L 0 0 
z
" style="fill: #ffffff"/>
  </g>
  <g id="axes_1">
   <g id="patch_2">
    <path d="M 115.560625 339.84 
L 561.960625 339.84 
L 561.960625 7.2 
L 115.560625 7.2 
z
" style="fill: #ffffff"/>
   </g>
   <g id="line2d_1">
    <path d="M 408.893092 339.84 
L 408.893092 7.2 
" clip-path="url(#p42f6408cae)" style="fill: none; stroke-dasharray: 11.1,4.8; stroke-dashoffset: 0; stroke: #ff0000; stroke-width: 3"/>
   </g>
   <g id="matplotlib.axis_1">
    <g id="xtick_1"/>
    <g id="xtick_2"/>
    <g id="xtick_3"/>
    <g id="xtick_4"/>
    <g id="xtick_5"/>
    <g id="xtick_6"/>
    <g id="xtick_7"/>
    <g id="xtick_8"/>
    <g id="xtick_9"/>
    <g id="xtick_10"/>
   </g>
   <g id="matplotlib.axis_2">
    <g id="ytick_1">
     <g id="line2d_2">
      <path d="M 115.560625 326.389231 
L 561.960625 326.389231 
" clip-path="url(#p42f6408cae)" style="fill: none; stroke: #ffffff; stroke-width: 0.8; stroke-linecap: square"/>
     </g>
     <g id="line2d_3">
      <defs>
       <path id="m540c6972cb" d="M 0 0 
L -8 0 
" style="stroke: #000000; stroke-width: 0.8"/>
      </defs>
      <g>
       <use xlink:href="#m540c6972cb" x="115.560625" y="326.389231" style="stroke: #000000; stroke-width: 0.8"/>
      </g>
     </g>
     <g id="text_1">
      <!-- 0.00 -->
      <g transform="translate(46.17 336.2672) scale(0.26 -0.26)">
       <defs>
        <path id="DejaVuSans-30" d="M 2034 4250 
Q 1547 4250 1301 3770 
Q 1056 3291 1056 2328 
Q 1056 1369 1301 889 
Q 1547 409 2034 409 
Q 2525 409 2770 889 
Q 3016 1369 3016 2328 
Q 3016 3291 2770 3770 
Q 2525 4250 2034 4250 
z
M 2034 4750 
Q 2819 4750 3233 4129 
Q 3647 3509 3647 2328 
Q 3647 1150 3233 529 
Q 2819 -91 2034 -91 
Q 1250 -91 836 529 
Q 422 1150 422 2328 
Q 422 3509 836 4129 
Q 1250 4750 2034 4750 
z
" transform="scale(0.015625)"/>
        <path id="DejaVuSans-2e" d="M 684 794 
L 1344 794 
L 1344 0 
L 684 0 
L 684 794 
z
" transform="scale(0.015625)"/>
       </defs>
       <use xlink:href="#DejaVuSans-30"/>
       <use xlink:href="#DejaVuSans-2e" x="63.623047"/>
       <use xlink:href="#DejaVuSans-30" x="95.410156"/>
       <use xlink:href="#DejaVuSans-30" x="159.033203"/>
      </g>
     </g>
    </g>
    <g id="ytick_2">
     <g id="line2d_4">
      <path d="M 115.560625 267.899075 
L 561.960625 267.899075 
" clip-path="url(#p42f6408cae)" style="fill: none; stroke: #ffffff; stroke-width: 0.8; stroke-linecap: square"/>
     </g>
     <g id="line2d_5">
      <g>
       <use xlink:href="#m540c6972cb" x="115.560625" y="267.899075" style="stroke: #000000; stroke-width: 0.8"/>
      </g>
     </g>
     <g id="text_2">
      <!-- 0.25 -->
      <g transform="translate(46.17 277.777044) scale(0.26 -0.26)">
       <defs>
        <path id="DejaVuSans-32" d="M 1228 531 
L 3431 531 
L 3431 0 
L 469 0 
L 469 531 
Q 828 903 1448 1529 
Q 2069 2156 2228 2338 
Q 2531 2678 2651 2914 
Q 2772 3150 2772 3378 
Q 2772 3750 2511 3984 
Q 2250 4219 1831 4219 
Q 1534 4219 1204 4116 
Q 875 4013 500 3803 
L 500 4441 
Q 881 4594 1212 4672 
Q 1544 4750 1819 4750 
Q 2544 4750 2975 4387 
Q 3406 4025 3406 3419 
Q 3406 3131 3298 2873 
Q 3191 2616 2906 2266 
Q 2828 2175 2409 1742 
Q 1991 1309 1228 531 
z
" transform="scale(0.015625)"/>
        <path id="DejaVuSans-35" d="M 691 4666 
L 3169 4666 
L 3169 4134 
L 1269 4134 
L 1269 2991 
Q 1406 3038 1543 3061 
Q 1681 3084 1819 3084 
Q 2600 3084 3056 2656 
Q 3513 2228 3513 1497 
Q 3513 744 3044 326 
Q 2575 -91 1722 -91 
Q 1428 -91 1123 -41 
Q 819 9 494 109 
L 494 744 
Q 775 591 1075 516 
Q 1375 441 1709 441 
Q 2250 441 2565 725 
Q 2881 1009 2881 1497 
Q 2881 1984 2565 2268 
Q 2250 2553 1709 2553 
Q 1456 2553 1204 2497 
Q 953 2441 691 2322 
L 691 4666 
z
" transform="scale(0.015625)"/>
       </defs>
       <use xlink:href="#DejaVuSans-30"/>
       <use xlink:href="#DejaVuSans-2e" x="63.623047"/>
       <use xlink:href="#DejaVuSans-32" x="95.410156"/>
       <use xlink:href="#DejaVuSans-35" x="159.033203"/>
      </g>
     </g>
    </g>
    <g id="ytick_3">
     <g id="line2d_6">
      <path d="M 115.560625 209.408919 
L 561.960625 209.408919 
" clip-path="url(#p42f6408cae)" style="fill: none; stroke: #ffffff; stroke-width: 0.8; stroke-linecap: square"/>
     </g>
     <g id="line2d_7">
      <g>
       <use xlink:href="#m540c6972cb" x="115.560625" y="209.408919" style="stroke: #000000; stroke-width: 0.8"/>
      </g>
     </g>
     <g id="text_3">
      <!-- 0.50 -->
      <g transform="translate(46.17 219.286888) scale(0.26 -0.26)">
       <use xlink:href="#DejaVuSans-30"/>
       <use xlink:href="#DejaVuSans-2e" x="63.623047"/>
       <use xlink:href="#DejaVuSans-35" x="95.410156"/>
       <use xlink:href="#DejaVuSans-30" x="159.033203"/>
      </g>
     </g>
    </g>
    <g id="ytick_4">
     <g id="line2d_8">
      <path d="M 115.560625 150.918763 
L 561.960625 150.918763 
" clip-path="url(#p42f6408cae)" style="fill: none; stroke: #ffffff; stroke-width: 0.8; stroke-linecap: square"/>
     </g>
     <g id="line2d_9">
      <g>
       <use xlink:href="#m540c6972cb" x="115.560625" y="150.918763" style="stroke: #000000; stroke-width: 0.8"/>
      </g>
     </g>
     <g id="text_4">
      <!-- 0.75 -->
      <g transform="translate(46.17 160.796732) scale(0.26 -0.26)">
       <defs>
        <path id="DejaVuSans-37" d="M 525 4666 
L 3525 4666 
L 3525 4397 
L 1831 0 
L 1172 0 
L 2766 4134 
L 525 4134 
L 525 4666 
z
" transform="scale(0.015625)"/>
       </defs>
       <use xlink:href="#DejaVuSans-30"/>
       <use xlink:href="#DejaVuSans-2e" x="63.623047"/>
       <use xlink:href="#DejaVuSans-37" x="95.410156"/>
       <use xlink:href="#DejaVuSans-35" x="159.033203"/>
      </g>
     </g>
    </g>
    <g id="ytick_5">
     <g id="line2d_10">
      <path d="M 115.560625 92.428607 
L 561.960625 92.428607 
" clip-path="url(#p42f6408cae)" style="fill: none; stroke: #ffffff; stroke-width: 0.8; stroke-linecap: square"/>
     </g>
     <g id="line2d_11">
      <g>
       <use xlink:href="#m540c6972cb" x="115.560625" y="92.428607" style="stroke: #000000; stroke-width: 0.8"/>
      </g>
     </g>
     <g id="text_5">
      <!-- 1.00 -->
      <g transform="translate(46.17 102.306576) scale(0.26 -0.26)">
       <defs>
        <path id="DejaVuSans-31" d="M 794 531 
L 1825 531 
L 1825 4091 
L 703 3866 
L 703 4441 
L 1819 4666 
L 2450 4666 
L 2450 531 
L 3481 531 
L 3481 0 
L 794 0 
L 794 531 
z
" transform="scale(0.015625)"/>
       </defs>
       <use xlink:href="#DejaVuSans-31"/>
       <use xlink:href="#DejaVuSans-2e" x="63.623047"/>
       <use xlink:href="#DejaVuSans-30" x="95.410156"/>
       <use xlink:href="#DejaVuSans-30" x="159.033203"/>
      </g>
     </g>
    </g>
    <g id="ytick_6">
     <g id="line2d_12">
      <path d="M 115.560625 33.938451 
L 561.960625 33.938451 
" clip-path="url(#p42f6408cae)" style="fill: none; stroke: #ffffff; stroke-width: 0.8; stroke-linecap: square"/>
     </g>
     <g id="line2d_13">
      <g>
       <use xlink:href="#m540c6972cb" x="115.560625" y="33.938451" style="stroke: #000000; stroke-width: 0.8"/>
      </g>
     </g>
     <g id="text_6">
      <!-- 1.25 -->
      <g transform="translate(46.17 43.81642) scale(0.26 -0.26)">
       <use xlink:href="#DejaVuSans-31"/>
       <use xlink:href="#DejaVuSans-2e" x="63.623047"/>
       <use xlink:href="#DejaVuSans-32" x="95.410156"/>
       <use xlink:href="#DejaVuSans-35" x="159.033203"/>
      </g>
     </g>
    </g>
    <g id="text_7">
     <!-- $\ell_1$ distance -->
     <g transform="translate(31.515 260.72) rotate(-90) scale(0.32 -0.32)">
      <defs>
       <path id="DejaVuSans-Oblique-2113" d="M 950 838 
Q 1078 213 1350 213 
Q 1531 213 1766 572 
L 2181 572 
Q 1994 253 1775 88 
Q 1538 -91 1319 -91 
Q 831 -91 634 344 
L 400 0 
L -88 0 
Q 250 459 500 888 
Q 469 1131 469 1397 
Q 469 1872 566 2347 
Q 931 4131 1256 4497 
Q 1481 4750 1866 4750 
Q 2256 4750 2256 4209 
Q 2253 3966 2197 3675 
Q 1972 2484 950 838 
z
M 947 1656 
Q 1531 2744 1709 3613 
Q 1803 4072 1803 4191 
Q 1803 4406 1725 4406 
Q 1384 4134 1081 2516 
Q 997 2063 947 1656 
z
" transform="scale(0.015625)"/>
       <path id="DejaVuSans-20" transform="scale(0.015625)"/>
       <path id="DejaVuSans-64" d="M 2906 2969 
L 2906 4863 
L 3481 4863 
L 3481 0 
L 2906 0 
L 2906 525 
Q 2725 213 2448 61 
Q 2172 -91 1784 -91 
Q 1150 -91 751 415 
Q 353 922 353 1747 
Q 353 2572 751 3078 
Q 1150 3584 1784 3584 
Q 2172 3584 2448 3432 
Q 2725 3281 2906 2969 
z
M 947 1747 
Q 947 1113 1208 752 
Q 1469 391 1925 391 
Q 2381 391 2643 752 
Q 2906 1113 2906 1747 
Q 2906 2381 2643 2742 
Q 2381 3103 1925 3103 
Q 1469 3103 1208 2742 
Q 947 2381 947 1747 
z
" transform="scale(0.015625)"/>
       <path id="DejaVuSans-69" d="M 603 3500 
L 1178 3500 
L 1178 0 
L 603 0 
L 603 3500 
z
M 603 4863 
L 1178 4863 
L 1178 4134 
L 603 4134 
L 603 4863 
z
" transform="scale(0.015625)"/>
       <path id="DejaVuSans-73" d="M 2834 3397 
L 2834 2853 
Q 2591 2978 2328 3040 
Q 2066 3103 1784 3103 
Q 1356 3103 1142 2972 
Q 928 2841 928 2578 
Q 928 2378 1081 2264 
Q 1234 2150 1697 2047 
L 1894 2003 
Q 2506 1872 2764 1633 
Q 3022 1394 3022 966 
Q 3022 478 2636 193 
Q 2250 -91 1575 -91 
Q 1294 -91 989 -36 
Q 684 19 347 128 
L 347 722 
Q 666 556 975 473 
Q 1284 391 1588 391 
Q 1994 391 2212 530 
Q 2431 669 2431 922 
Q 2431 1156 2273 1281 
Q 2116 1406 1581 1522 
L 1381 1569 
Q 847 1681 609 1914 
Q 372 2147 372 2553 
Q 372 3047 722 3315 
Q 1072 3584 1716 3584 
Q 2034 3584 2315 3537 
Q 2597 3491 2834 3397 
z
" transform="scale(0.015625)"/>
       <path id="DejaVuSans-74" d="M 1172 4494 
L 1172 3500 
L 2356 3500 
L 2356 3053 
L 1172 3053 
L 1172 1153 
Q 1172 725 1289 603 
Q 1406 481 1766 481 
L 2356 481 
L 2356 0 
L 1766 0 
Q 1100 0 847 248 
Q 594 497 594 1153 
L 594 3053 
L 172 3053 
L 172 3500 
L 594 3500 
L 594 4494 
L 1172 4494 
z
" transform="scale(0.015625)"/>
       <path id="DejaVuSans-61" d="M 2194 1759 
Q 1497 1759 1228 1600 
Q 959 1441 959 1056 
Q 959 750 1161 570 
Q 1363 391 1709 391 
Q 2188 391 2477 730 
Q 2766 1069 2766 1631 
L 2766 1759 
L 2194 1759 
z
M 3341 1997 
L 3341 0 
L 2766 0 
L 2766 531 
Q 2569 213 2275 61 
Q 1981 -91 1556 -91 
Q 1019 -91 701 211 
Q 384 513 384 1019 
Q 384 1609 779 1909 
Q 1175 2209 1959 2209 
L 2766 2209 
L 2766 2266 
Q 2766 2663 2505 2880 
Q 2244 3097 1772 3097 
Q 1472 3097 1187 3025 
Q 903 2953 641 2809 
L 641 3341 
Q 956 3463 1253 3523 
Q 1550 3584 1831 3584 
Q 2591 3584 2966 3190 
Q 3341 2797 3341 1997 
z
" transform="scale(0.015625)"/>
       <path id="DejaVuSans-6e" d="M 3513 2113 
L 3513 0 
L 2938 0 
L 2938 2094 
Q 2938 2591 2744 2837 
Q 2550 3084 2163 3084 
Q 1697 3084 1428 2787 
Q 1159 2491 1159 1978 
L 1159 0 
L 581 0 
L 581 3500 
L 1159 3500 
L 1159 2956 
Q 1366 3272 1645 3428 
Q 1925 3584 2291 3584 
Q 2894 3584 3203 3211 
Q 3513 2838 3513 2113 
z
" transform="scale(0.015625)"/>
       <path id="DejaVuSans-63" d="M 3122 3366 
L 3122 2828 
Q 2878 2963 2633 3030 
Q 2388 3097 2138 3097 
Q 1578 3097 1268 2742 
Q 959 2388 959 1747 
Q 959 1106 1268 751 
Q 1578 397 2138 397 
Q 2388 397 2633 464 
Q 2878 531 3122 666 
L 3122 134 
Q 2881 22 2623 -34 
Q 2366 -91 2075 -91 
Q 1284 -91 818 406 
Q 353 903 353 1747 
Q 353 2603 823 3093 
Q 1294 3584 2113 3584 
Q 2378 3584 2631 3529 
Q 2884 3475 3122 3366 
z
" transform="scale(0.015625)"/>
       <path id="DejaVuSans-65" d="M 3597 1894 
L 3597 1613 
L 953 1613 
Q 991 1019 1311 708 
Q 1631 397 2203 397 
Q 2534 397 2845 478 
Q 3156 559 3463 722 
L 3463 178 
Q 3153 47 2828 -22 
Q 2503 -91 2169 -91 
Q 1331 -91 842 396 
Q 353 884 353 1716 
Q 353 2575 817 3079 
Q 1281 3584 2069 3584 
Q 2775 3584 3186 3129 
Q 3597 2675 3597 1894 
z
M 3022 2063 
Q 3016 2534 2758 2815 
Q 2500 3097 2075 3097 
Q 1594 3097 1305 2825 
Q 1016 2553 972 2059 
L 3022 2063 
z
" transform="scale(0.015625)"/>
      </defs>
      <use xlink:href="#DejaVuSans-Oblique-2113" transform="translate(0 0.015625)"/>
      <use xlink:href="#DejaVuSans-31" transform="translate(41.308594 -16.390625) scale(0.7)"/>
      <use xlink:href="#DejaVuSans-20" transform="translate(88.579102 0.015625)"/>
      <use xlink:href="#DejaVuSans-64" transform="translate(120.366211 0.015625)"/>
      <use xlink:href="#DejaVuSans-69" transform="translate(183.842773 0.015625)"/>
      <use xlink:href="#DejaVuSans-73" transform="translate(211.625977 0.015625)"/>
      <use xlink:href="#DejaVuSans-74" transform="translate(263.725586 0.015625)"/>
      <use xlink:href="#DejaVuSans-61" transform="translate(302.93457 0.015625)"/>
      <use xlink:href="#DejaVuSans-6e" transform="translate(364.213867 0.015625)"/>
      <use xlink:href="#DejaVuSans-63" transform="translate(427.592773 0.015625)"/>
      <use xlink:href="#DejaVuSans-65" transform="translate(482.573242 0.015625)"/>
     </g>
    </g>
   </g>
   <g id="line2d_14">
    <path d="M 131.184625 259.779595 
L 131.184625 257.863211 
" clip-path="url(#p42f6408cae)" style="fill: none; stroke: #000000; stroke-width: 5.4; stroke-linecap: square"/>
   </g>
   <g id="line2d_15">
    <path d="M 175.824625 195.804957 
L 175.824625 193.814595 
" clip-path="url(#p42f6408cae)" style="fill: none; stroke: #000000; stroke-width: 5.4; stroke-linecap: square"/>
   </g>
   <g id="line2d_16">
    <path d="M 220.464625 139.83606 
L 220.464625 137.85673 
" clip-path="url(#p42f6408cae)" style="fill: none; stroke: #000000; stroke-width: 5.4; stroke-linecap: square"/>
   </g>
   <g id="line2d_17">
    <path d="M 265.104625 93.026583 
L 265.104625 91.269125 
" clip-path="url(#p42f6408cae)" style="fill: none; stroke: #000000; stroke-width: 5.4; stroke-linecap: square"/>
   </g>
   <g id="line2d_18">
    <path d="M 309.744625 55.14486 
L 309.744625 53.534775 
" clip-path="url(#p42f6408cae)" style="fill: none; stroke: #000000; stroke-width: 5.4; stroke-linecap: square"/>
   </g>
   <g id="line2d_19">
    <path d="M 354.384625 24.010681 
L 354.384625 22.529012 
" clip-path="url(#p42f6408cae)" style="fill: none; stroke: #000000; stroke-width: 5.4; stroke-linecap: square"/>
   </g>
   <g id="line2d_20">
    <path d="M 399.024625 132.713013 
L 399.024625 70.299545 
" clip-path="url(#p42f6408cae)" style="fill: none; stroke: #000000; stroke-width: 5.4; stroke-linecap: square"/>
   </g>
   <g id="line2d_21">
    <path d="M 443.664625 324.217789 
L 443.664625 323.507124 
" clip-path="url(#p42f6408cae)" style="fill: none; stroke: #000000; stroke-width: 5.4; stroke-linecap: square"/>
   </g>
   <g id="line2d_22">
    <path d="M 488.304625 324.695836 
L 488.304625 323.96492 
" clip-path="url(#p42f6408cae)" style="fill: none; stroke: #000000; stroke-width: 5.4; stroke-linecap: square"/>
   </g>
   <g id="line2d_23">
    <path d="M 532.944625 324.72 
L 532.944625 323.940755 
" clip-path="url(#p42f6408cae)" style="fill: none; stroke: #000000; stroke-width: 5.4; stroke-linecap: square"/>
   </g>
   <g id="PathCollection_1">
    <defs>
     <path id="m2a18495795" d="M 0 4.060738 
C 1.07692 4.060738 2.109878 3.632873 2.871375 2.871375 
C 3.632873 2.109878 4.060738 1.07692 4.060738 0 
C 4.060738 -1.07692 3.632873 -2.109878 2.871375 -2.871375 
C 2.109878 -3.632873 1.07692 -4.060738 0 -4.060738 
C -1.07692 -4.060738 -2.109878 -3.632873 -2.871375 -2.871375 
C -3.632873 -2.109878 -4.060738 -1.07692 -4.060738 0 
C -4.060738 1.07692 -3.632873 2.109878 -2.871375 2.871375 
C -2.109878 3.632873 -1.07692 4.060738 0 4.060738 
z
" style="stroke: #000000; stroke-width: 2.43"/>
    </defs>
    <g clip-path="url(#p42f6408cae)">
     <use xlink:href="#m2a18495795" x="131.184625" y="258.821403" style="stroke: #000000; stroke-width: 2.43"/>
     <use xlink:href="#m2a18495795" x="175.824625" y="194.809776" style="stroke: #000000; stroke-width: 2.43"/>
     <use xlink:href="#m2a18495795" x="220.464625" y="138.846395" style="stroke: #000000; stroke-width: 2.43"/>
     <use xlink:href="#m2a18495795" x="265.104625" y="92.147854" style="stroke: #000000; stroke-width: 2.43"/>
     <use xlink:href="#m2a18495795" x="309.744625" y="54.339818" style="stroke: #000000; stroke-width: 2.43"/>
     <use xlink:href="#m2a18495795" x="354.384625" y="23.269847" style="stroke: #000000; stroke-width: 2.43"/>
     <use xlink:href="#m2a18495795" x="399.024625" y="101.506279" style="stroke: #000000; stroke-width: 2.43"/>
     <use xlink:href="#m2a18495795" x="443.664625" y="323.862456" style="stroke: #000000; stroke-width: 2.43"/>
     <use xlink:href="#m2a18495795" x="488.304625" y="324.330378" style="stroke: #000000; stroke-width: 2.43"/>
     <use xlink:href="#m2a18495795" x="532.944625" y="324.330378" style="stroke: #000000; stroke-width: 2.43"/>
    </g>
   </g>
   <g id="line2d_24">
    <path d="M 135.648625 259.453187 
L 135.648625 257.440945 
" clip-path="url(#p42f6408cae)" style="fill: none; stroke: #ffa500; stroke-width: 5.4; stroke-linecap: square"/>
   </g>
   <g id="line2d_25">
    <path d="M 180.288625 195.388856 
L 180.288625 193.294854 
" clip-path="url(#p42f6408cae)" style="fill: none; stroke: #ffa500; stroke-width: 5.4; stroke-linecap: square"/>
   </g>
   <g id="line2d_26">
    <path d="M 224.928625 139.220732 
L 224.928625 137.349047 
" clip-path="url(#p42f6408cae)" style="fill: none; stroke: #ffa500; stroke-width: 5.4; stroke-linecap: square"/>
   </g>
   <g id="line2d_27">
    <path d="M 269.568625 92.936729 
L 269.568625 91.171812 
" clip-path="url(#p42f6408cae)" style="fill: none; stroke: #ffa500; stroke-width: 5.4; stroke-linecap: square"/>
   </g>
   <g id="line2d_28">
    <path d="M 314.208625 55.042158 
L 314.208625 53.450309 
" clip-path="url(#p42f6408cae)" style="fill: none; stroke: #ffa500; stroke-width: 5.4; stroke-linecap: square"/>
   </g>
   <g id="line2d_29">
    <path d="M 358.848625 23.845356 
L 358.848625 22.32 
" clip-path="url(#p42f6408cae)" style="fill: none; stroke: #ffa500; stroke-width: 5.4; stroke-linecap: square"/>
   </g>
   <g id="line2d_30">
    <path d="M 403.488625 132.229711 
L 403.488625 69.847005 
" clip-path="url(#p42f6408cae)" style="fill: none; stroke: #ffa500; stroke-width: 5.4; stroke-linecap: square"/>
   </g>
   <g id="line2d_31">
    <path d="M 448.128625 324.64022 
L 448.128625 323.833367 
" clip-path="url(#p42f6408cae)" style="fill: none; stroke: #ffa500; stroke-width: 5.4; stroke-linecap: square"/>
   </g>
   <g id="line2d_32">
    <path d="M 492.768625 324.64022 
L 492.768625 323.833367 
" clip-path="url(#p42f6408cae)" style="fill: none; stroke: #ffa500; stroke-width: 5.4; stroke-linecap: square"/>
   </g>
   <g id="line2d_33">
    <path d="M 537.408625 324.64022 
L 537.408625 323.833367 
" clip-path="url(#p42f6408cae)" style="fill: none; stroke: #ffa500; stroke-width: 5.4; stroke-linecap: square"/>
   </g>
   <g id="PathCollection_2">
    <defs>
     <path id="m22dd65c93d" d="M 0 4.060738 
C 1.07692 4.060738 2.109878 3.632873 2.871375 2.871375 
C 3.632873 2.109878 4.060738 1.07692 4.060738 0 
C 4.060738 -1.07692 3.632873 -2.109878 2.871375 -2.871375 
C 2.109878 -3.632873 1.07692 -4.060738 0 -4.060738 
C -1.07692 -4.060738 -2.109878 -3.632873 -2.871375 -2.871375 
C -3.632873 -2.109878 -4.060738 -1.07692 -4.060738 0 
C -4.060738 1.07692 -3.632873 2.109878 -2.871375 2.871375 
C -2.109878 3.632873 -1.07692 4.060738 0 4.060738 
z
" style="stroke: #ffa500; stroke-width: 2.43"/>
    </defs>
    <g clip-path="url(#p42f6408cae)">
     <use xlink:href="#m22dd65c93d" x="135.648625" y="258.447066" style="fill: #ffa500; stroke: #ffa500; stroke-width: 2.43"/>
     <use xlink:href="#m22dd65c93d" x="180.288625" y="194.341855" style="fill: #ffa500; stroke: #ffa500; stroke-width: 2.43"/>
     <use xlink:href="#m22dd65c93d" x="224.928625" y="138.284889" style="fill: #ffa500; stroke: #ffa500; stroke-width: 2.43"/>
     <use xlink:href="#m22dd65c93d" x="269.568625" y="92.05427" style="fill: #ffa500; stroke: #ffa500; stroke-width: 2.43"/>
     <use xlink:href="#m22dd65c93d" x="314.208625" y="54.246233" style="fill: #ffa500; stroke: #ffa500; stroke-width: 2.43"/>
     <use xlink:href="#m22dd65c93d" x="358.848625" y="23.082678" style="fill: #ffa500; stroke: #ffa500; stroke-width: 2.43"/>
     <use xlink:href="#m22dd65c93d" x="403.488625" y="101.038358" style="fill: #ffa500; stroke: #ffa500; stroke-width: 2.43"/>
     <use xlink:href="#m22dd65c93d" x="448.128625" y="324.236793" style="fill: #ffa500; stroke: #ffa500; stroke-width: 2.43"/>
     <use xlink:href="#m22dd65c93d" x="492.768625" y="324.236793" style="fill: #ffa500; stroke: #ffa500; stroke-width: 2.43"/>
     <use xlink:href="#m22dd65c93d" x="537.408625" y="324.236793" style="fill: #ffa500; stroke: #ffa500; stroke-width: 2.43"/>
    </g>
   </g>
   <g id="patch_3">
    <path d="M 115.560625 339.84 
L 115.560625 7.2 
" style="fill: none; stroke: #000000; stroke-width: 2; stroke-linejoin: miter; stroke-linecap: square"/>
   </g>
   <g id="patch_4">
    <path d="M 115.560625 339.84 
L 561.960625 339.84 
" style="fill: none; stroke: #000000; stroke-width: 2; stroke-linejoin: miter; stroke-linecap: square"/>
   </g>
   <g id="line2d_34">
    <path d="M 140.112625 263.161411 
L 140.112625 257.288922 
" clip-path="url(#p42f6408cae)" style="fill: none; stroke: #008000; stroke-width: 5.4; stroke-linecap: square"/>
   </g>
   <g id="line2d_35">
    <path d="M 184.752625 198.830182 
L 184.752625 194.907078 
" clip-path="url(#p42f6408cae)" style="fill: none; stroke: #008000; stroke-width: 5.4; stroke-linecap: square"/>
   </g>
   <g id="line2d_36">
    <path d="M 229.392625 144.547593 
L 229.392625 140.631937 
" clip-path="url(#p42f6408cae)" style="fill: none; stroke: #008000; stroke-width: 5.4; stroke-linecap: square"/>
   </g>
   <g id="line2d_37">
    <path d="M 274.032625 115.891076 
L 274.032625 97.41575 
" clip-path="url(#p42f6408cae)" style="fill: none; stroke: #008000; stroke-width: 5.4; stroke-linecap: square"/>
   </g>
   <g id="line2d_38">
    <path d="M 318.672625 61.486371 
L 318.672625 57.861869 
" clip-path="url(#p42f6408cae)" style="fill: none; stroke: #008000; stroke-width: 5.4; stroke-linecap: square"/>
   </g>
   <g id="line2d_39">
    <path d="M 363.312625 30.20537 
L 363.312625 27.002928 
" clip-path="url(#p42f6408cae)" style="fill: none; stroke: #008000; stroke-width: 5.4; stroke-linecap: square"/>
   </g>
   <g id="line2d_40">
    <path d="M 407.952625 119.804657 
L 407.952625 60.747681 
" clip-path="url(#p42f6408cae)" style="fill: none; stroke: #008000; stroke-width: 5.4; stroke-linecap: square"/>
   </g>
   <g id="line2d_41">
    <path d="M 452.592625 322.64307 
L 452.592625 321.338473 
" clip-path="url(#p42f6408cae)" style="fill: none; stroke: #008000; stroke-width: 5.4; stroke-linecap: square"/>
   </g>
   <g id="line2d_42">
    <path d="M 497.232625 321.981946 
L 497.232625 320.502249 
" clip-path="url(#p42f6408cae)" style="fill: none; stroke: #008000; stroke-width: 5.4; stroke-linecap: square"/>
   </g>
   <g id="line2d_43">
    <path d="M 541.872625 322.648294 
L 541.872625 321.14608 
" clip-path="url(#p42f6408cae)" style="fill: none; stroke: #008000; stroke-width: 5.4; stroke-linecap: square"/>
   </g>
   <g id="PathCollection_3">
    <defs>
     <path id="mf3fafd77d6" d="M 0 4.060738 
C 1.07692 4.060738 2.109878 3.632873 2.871375 2.871375 
C 3.632873 2.109878 4.060738 1.07692 4.060738 0 
C 4.060738 -1.07692 3.632873 -2.109878 2.871375 -2.871375 
C 2.109878 -3.632873 1.07692 -4.060738 0 -4.060738 
C -1.07692 -4.060738 -2.109878 -3.632873 -2.871375 -2.871375 
C -3.632873 -2.109878 -4.060738 -1.07692 -4.060738 0 
C -4.060738 1.07692 -3.632873 2.109878 -2.871375 2.871375 
C -2.109878 3.632873 -1.07692 4.060738 0 4.060738 
z
" style="stroke: #008000; stroke-width: 2.43"/>
    </defs>
    <g clip-path="url(#p42f6408cae)">
     <use xlink:href="#mf3fafd77d6" x="140.112625" y="260.225167" style="fill: #008000; stroke: #008000; stroke-width: 2.43"/>
     <use xlink:href="#mf3fafd77d6" x="184.752625" y="196.86863" style="fill: #008000; stroke: #008000; stroke-width: 2.43"/>
     <use xlink:href="#mf3fafd77d6" x="229.392625" y="142.589765" style="fill: #008000; stroke: #008000; stroke-width: 2.43"/>
     <use xlink:href="#mf3fafd77d6" x="274.032625" y="106.653413" style="fill: #008000; stroke: #008000; stroke-width: 2.43"/>
     <use xlink:href="#mf3fafd77d6" x="318.672625" y="59.67412" style="fill: #008000; stroke: #008000; stroke-width: 2.43"/>
     <use xlink:href="#mf3fafd77d6" x="363.312625" y="28.604149" style="fill: #008000; stroke: #008000; stroke-width: 2.43"/>
     <use xlink:href="#mf3fafd77d6" x="407.952625" y="90.276169" style="fill: #008000; stroke: #008000; stroke-width: 2.43"/>
     <use xlink:href="#mf3fafd77d6" x="452.592625" y="321.990771" style="fill: #008000; stroke: #008000; stroke-width: 2.43"/>
     <use xlink:href="#mf3fafd77d6" x="497.232625" y="321.242097" style="fill: #008000; stroke: #008000; stroke-width: 2.43"/>
     <use xlink:href="#mf3fafd77d6" x="541.872625" y="321.897187" style="fill: #008000; stroke: #008000; stroke-width: 2.43"/>
    </g>
   </g>
   <g id="line2d_44">
    <path d="M 144.576625 299.96618 
L 144.576625 287.116139 
" clip-path="url(#p42f6408cae)" style="fill: none; stroke: #59c7eb; stroke-width: 5.4; stroke-linecap: square"/>
   </g>
   <g id="line2d_45">
    <path d="M 189.216625 305.0018 
L 189.216625 282.454857 
" clip-path="url(#p42f6408cae)" style="fill: none; stroke: #59c7eb; stroke-width: 5.4; stroke-linecap: square"/>
   </g>
   <g id="line2d_46">
    <path d="M 233.856625 321.731654 
L 233.856625 304.843219 
" clip-path="url(#p42f6408cae)" style="fill: none; stroke: #59c7eb; stroke-width: 5.4; stroke-linecap: square"/>
   </g>
   <g id="line2d_47">
    <path d="M 278.496625 322.39878 
L 278.496625 321.021257 
" clip-path="url(#p42f6408cae)" style="fill: none; stroke: #59c7eb; stroke-width: 5.4; stroke-linecap: square"/>
   </g>
   <g id="line2d_48">
    <path d="M 323.136625 322.598028 
L 323.136625 321.196346 
" clip-path="url(#p42f6408cae)" style="fill: none; stroke: #59c7eb; stroke-width: 5.4; stroke-linecap: square"/>
   </g>
   <g id="line2d_49">
    <path d="M 367.776625 322.371759 
L 367.776625 321.048278 
" clip-path="url(#p42f6408cae)" style="fill: none; stroke: #59c7eb; stroke-width: 5.4; stroke-linecap: square"/>
   </g>
   <g id="line2d_50">
    <path d="M 412.416625 322.628931 
L 412.416625 321.352612 
" clip-path="url(#p42f6408cae)" style="fill: none; stroke: #59c7eb; stroke-width: 5.4; stroke-linecap: square"/>
   </g>
   <g id="line2d_51">
    <path d="M 457.056625 322.6968 
L 457.056625 321.284743 
" clip-path="url(#p42f6408cae)" style="fill: none; stroke: #59c7eb; stroke-width: 5.4; stroke-linecap: square"/>
   </g>
   <g id="line2d_52">
    <path d="M 501.696625 322.498693 
L 501.696625 321.108513 
" clip-path="url(#p42f6408cae)" style="fill: none; stroke: #59c7eb; stroke-width: 5.4; stroke-linecap: square"/>
   </g>
   <g id="line2d_53">
    <path d="M 546.336625 322.515009 
L 546.336625 321.279366 
" clip-path="url(#p42f6408cae)" style="fill: none; stroke: #59c7eb; stroke-width: 5.4; stroke-linecap: square"/>
   </g>
   <g id="PathCollection_4">
    <defs>
     <path id="mb05e6129ea" d="M 0 4.060738 
C 1.07692 4.060738 2.109878 3.632873 2.871375 2.871375 
C 3.632873 2.109878 4.060738 1.07692 4.060738 0 
C 4.060738 -1.07692 3.632873 -2.109878 2.871375 -2.871375 
C 2.109878 -3.632873 1.07692 -4.060738 0 -4.060738 
C -1.07692 -4.060738 -2.109878 -3.632873 -2.871375 -2.871375 
C -3.632873 -2.109878 -4.060738 -1.07692 -4.060738 0 
C -4.060738 1.07692 -3.632873 2.109878 -2.871375 2.871375 
C -2.109878 3.632873 -1.07692 4.060738 0 4.060738 
z
" style="stroke: #59c7eb; stroke-width: 2.43"/>
    </defs>
    <g clip-path="url(#p42f6408cae)">
     <use xlink:href="#mb05e6129ea" x="144.576625" y="293.54116" style="fill: #59c7eb; stroke: #59c7eb; stroke-width: 2.43"/>
     <use xlink:href="#mb05e6129ea" x="189.216625" y="293.728328" style="fill: #59c7eb; stroke: #59c7eb; stroke-width: 2.43"/>
     <use xlink:href="#mb05e6129ea" x="233.856625" y="313.287436" style="fill: #59c7eb; stroke: #59c7eb; stroke-width: 2.43"/>
     <use xlink:href="#mb05e6129ea" x="278.496625" y="321.710019" style="fill: #59c7eb; stroke: #59c7eb; stroke-width: 2.43"/>
     <use xlink:href="#mb05e6129ea" x="323.136625" y="321.897187" style="fill: #59c7eb; stroke: #59c7eb; stroke-width: 2.43"/>
     <use xlink:href="#mb05e6129ea" x="367.776625" y="321.710019" style="fill: #59c7eb; stroke: #59c7eb; stroke-width: 2.43"/>
     <use xlink:href="#mb05e6129ea" x="412.416625" y="321.990771" style="fill: #59c7eb; stroke: #59c7eb; stroke-width: 2.43"/>
     <use xlink:href="#mb05e6129ea" x="457.056625" y="321.990771" style="fill: #59c7eb; stroke: #59c7eb; stroke-width: 2.43"/>
     <use xlink:href="#mb05e6129ea" x="501.696625" y="321.803603" style="fill: #59c7eb; stroke: #59c7eb; stroke-width: 2.43"/>
     <use xlink:href="#mb05e6129ea" x="546.336625" y="321.897187" style="fill: #59c7eb; stroke: #59c7eb; stroke-width: 2.43"/>
    </g>
   </g>
   <g id="legend_1">
    <g id="PathCollection_5">
     <g>
      <use xlink:href="#m2a18495795" x="599.960625" y="35.146875" style="stroke: #000000; stroke-width: 2.43"/>
     </g>
    </g>
    <g id="text_8">
     <!-- observational, no $\Omega_0$ -->
     <g transform="translate(635.960625 40.396875) scale(0.2 -0.2)">
      <defs>
       <path id="DejaVuSans-6f" d="M 1959 3097 
Q 1497 3097 1228 2736 
Q 959 2375 959 1747 
Q 959 1119 1226 758 
Q 1494 397 1959 397 
Q 2419 397 2687 759 
Q 2956 1122 2956 1747 
Q 2956 2369 2687 2733 
Q 2419 3097 1959 3097 
z
M 1959 3584 
Q 2709 3584 3137 3096 
Q 3566 2609 3566 1747 
Q 3566 888 3137 398 
Q 2709 -91 1959 -91 
Q 1206 -91 779 398 
Q 353 888 353 1747 
Q 353 2609 779 3096 
Q 1206 3584 1959 3584 
z
" transform="scale(0.015625)"/>
       <path id="DejaVuSans-62" d="M 3116 1747 
Q 3116 2381 2855 2742 
Q 2594 3103 2138 3103 
Q 1681 3103 1420 2742 
Q 1159 2381 1159 1747 
Q 1159 1113 1420 752 
Q 1681 391 2138 391 
Q 2594 391 2855 752 
Q 3116 1113 3116 1747 
z
M 1159 2969 
Q 1341 3281 1617 3432 
Q 1894 3584 2278 3584 
Q 2916 3584 3314 3078 
Q 3713 2572 3713 1747 
Q 3713 922 3314 415 
Q 2916 -91 2278 -91 
Q 1894 -91 1617 61 
Q 1341 213 1159 525 
L 1159 0 
L 581 0 
L 581 4863 
L 1159 4863 
L 1159 2969 
z
" transform="scale(0.015625)"/>
       <path id="DejaVuSans-72" d="M 2631 2963 
Q 2534 3019 2420 3045 
Q 2306 3072 2169 3072 
Q 1681 3072 1420 2755 
Q 1159 2438 1159 1844 
L 1159 0 
L 581 0 
L 581 3500 
L 1159 3500 
L 1159 2956 
Q 1341 3275 1631 3429 
Q 1922 3584 2338 3584 
Q 2397 3584 2469 3576 
Q 2541 3569 2628 3553 
L 2631 2963 
z
" transform="scale(0.015625)"/>
       <path id="DejaVuSans-76" d="M 191 3500 
L 800 3500 
L 1894 563 
L 2988 3500 
L 3597 3500 
L 2284 0 
L 1503 0 
L 191 3500 
z
" transform="scale(0.015625)"/>
       <path id="DejaVuSans-6c" d="M 603 4863 
L 1178 4863 
L 1178 0 
L 603 0 
L 603 4863 
z
" transform="scale(0.015625)"/>
       <path id="DejaVuSans-2c" d="M 750 794 
L 1409 794 
L 1409 256 
L 897 -744 
L 494 -744 
L 750 256 
L 750 794 
z
" transform="scale(0.015625)"/>
       <path id="DejaVuSans-3a9" d="M 4647 556 
L 4647 0 
L 2772 0 
L 2772 556 
Q 3325 859 3634 1378 
Q 3944 1897 3944 2528 
Q 3944 3278 3531 3731 
Q 3119 4184 2444 4184 
Q 1769 4184 1355 3729 
Q 941 3275 941 2528 
Q 941 1897 1250 1378 
Q 1563 859 2119 556 
L 2119 0 
L 244 0 
L 244 556 
L 1241 556 
Q 747 991 519 1456 
Q 294 1922 294 2497 
Q 294 3491 894 4106 
Q 1491 4722 2444 4722 
Q 3391 4722 3994 4106 
Q 4594 3494 4594 2528 
Q 4594 1922 4372 1459 
Q 4150 997 3647 556 
L 4647 556 
z
" transform="scale(0.015625)"/>
      </defs>
      <use xlink:href="#DejaVuSans-6f" transform="translate(0 0.015625)"/>
      <use xlink:href="#DejaVuSans-62" transform="translate(61.181641 0.015625)"/>
      <use xlink:href="#DejaVuSans-73" transform="translate(124.658203 0.015625)"/>
      <use xlink:href="#DejaVuSans-65" transform="translate(176.757812 0.015625)"/>
      <use xlink:href="#DejaVuSans-72" transform="translate(238.28125 0.015625)"/>
      <use xlink:href="#DejaVuSans-76" transform="translate(279.394531 0.015625)"/>
      <use xlink:href="#DejaVuSans-61" transform="translate(338.574219 0.015625)"/>
      <use xlink:href="#DejaVuSans-74" transform="translate(399.853516 0.015625)"/>
      <use xlink:href="#DejaVuSans-69" transform="translate(439.0625 0.015625)"/>
      <use xlink:href="#DejaVuSans-6f" transform="translate(466.845703 0.015625)"/>
      <use xlink:href="#DejaVuSans-6e" transform="translate(528.027344 0.015625)"/>
      <use xlink:href="#DejaVuSans-61" transform="translate(591.40625 0.015625)"/>
      <use xlink:href="#DejaVuSans-6c" transform="translate(652.685547 0.015625)"/>
      <use xlink:href="#DejaVuSans-2c" transform="translate(680.46875 0.015625)"/>
      <use xlink:href="#DejaVuSans-20" transform="translate(712.255859 0.015625)"/>
      <use xlink:href="#DejaVuSans-6e" transform="translate(744.042969 0.015625)"/>
      <use xlink:href="#DejaVuSans-6f" transform="translate(807.421875 0.015625)"/>
      <use xlink:href="#DejaVuSans-20" transform="translate(868.603516 0.015625)"/>
      <use xlink:href="#DejaVuSans-3a9" transform="translate(900.390625 0.015625)"/>
      <use xlink:href="#DejaVuSans-30" transform="translate(977.763672 -16.390625) scale(0.7)"/>
     </g>
    </g>
    <g id="PathCollection_6">
     <g>
      <use xlink:href="#m22dd65c93d" x="599.960625" y="71.50625" style="fill: #ffa500; stroke: #ffa500; stroke-width: 2.43"/>
     </g>
    </g>
    <g id="text_9">
     <!-- observational, $\hat{\Omega}_0 \mid W$ -->
     <g transform="translate(635.960625 76.75625) scale(0.2 -0.2)">
      <defs>
       <path id="DejaVuSans-302" d="M -1831 5119 
L -1369 5119 
L -603 3944 
L -1038 3944 
L -1600 4709 
L -2163 3944 
L -2597 3944 
L -1831 5119 
z
M -1600 3584 
L -1600 3584 
z
" transform="scale(0.015625)"/>
       <path id="DejaVuSans-2223" d="M 1350 4934 
L 1850 4934 
L 1850 -1369 
L 1350 -1369 
L 1350 4934 
z
" transform="scale(0.015625)"/>
       <path id="DejaVuSans-Oblique-57" d="M 616 4666 
L 1228 4666 
L 1453 697 
L 3213 4666 
L 3916 4666 
L 4147 697 
L 5888 4666 
L 6528 4666 
L 4453 0 
L 3659 0 
L 3444 3891 
L 1697 0 
L 903 0 
L 616 4666 
z
" transform="scale(0.015625)"/>
      </defs>
      <use xlink:href="#DejaVuSans-6f" transform="translate(0 0.734375)"/>
      <use xlink:href="#DejaVuSans-62" transform="translate(61.181641 0.734375)"/>
      <use xlink:href="#DejaVuSans-73" transform="translate(124.658203 0.734375)"/>
      <use xlink:href="#DejaVuSans-65" transform="translate(176.757812 0.734375)"/>
      <use xlink:href="#DejaVuSans-72" transform="translate(238.28125 0.734375)"/>
      <use xlink:href="#DejaVuSans-76" transform="translate(279.394531 0.734375)"/>
      <use xlink:href="#DejaVuSans-61" transform="translate(338.574219 0.734375)"/>
      <use xlink:href="#DejaVuSans-74" transform="translate(399.853516 0.734375)"/>
      <use xlink:href="#DejaVuSans-69" transform="translate(439.0625 0.734375)"/>
      <use xlink:href="#DejaVuSans-6f" transform="translate(466.845703 0.734375)"/>
      <use xlink:href="#DejaVuSans-6e" transform="translate(528.027344 0.734375)"/>
      <use xlink:href="#DejaVuSans-61" transform="translate(591.40625 0.734375)"/>
      <use xlink:href="#DejaVuSans-6c" transform="translate(652.685547 0.734375)"/>
      <use xlink:href="#DejaVuSans-2c" transform="translate(680.46875 0.734375)"/>
      <use xlink:href="#DejaVuSans-20" transform="translate(712.255859 0.734375)"/>
      <use xlink:href="#DejaVuSans-302" transform="translate(816.725098 31.015625)"/>
      <use xlink:href="#DejaVuSans-3a9" transform="translate(744.042969 0.734375)"/>
      <use xlink:href="#DejaVuSans-30" transform="translate(821.416016 -15.671875) scale(0.7)"/>
      <use xlink:href="#DejaVuSans-2223" transform="translate(888.168945 0.734375)"/>
      <use xlink:href="#DejaVuSans-Oblique-57" transform="translate(957.651367 0.734375)"/>
     </g>
    </g>
    <g id="PathCollection_7">
     <g>
      <use xlink:href="#mf3fafd77d6" x="599.960625" y="101.103125" style="fill: #008000; stroke: #008000; stroke-width: 2.43"/>
     </g>
    </g>
    <g id="text_10">
     <!-- interventional, no $\Omega_0$ -->
     <g transform="translate(635.960625 106.353125) scale(0.2 -0.2)">
      <use xlink:href="#DejaVuSans-69" transform="translate(0 0.015625)"/>
      <use xlink:href="#DejaVuSans-6e" transform="translate(27.783203 0.015625)"/>
      <use xlink:href="#DejaVuSans-74" transform="translate(91.162109 0.015625)"/>
      <use xlink:href="#DejaVuSans-65" transform="translate(130.371094 0.015625)"/>
      <use xlink:href="#DejaVuSans-72" transform="translate(191.894531 0.015625)"/>
      <use xlink:href="#DejaVuSans-76" transform="translate(233.007812 0.015625)"/>
      <use xlink:href="#DejaVuSans-65" transform="translate(292.1875 0.015625)"/>
      <use xlink:href="#DejaVuSans-6e" transform="translate(353.710938 0.015625)"/>
      <use xlink:href="#DejaVuSans-74" transform="translate(417.089844 0.015625)"/>
      <use xlink:href="#DejaVuSans-69" transform="translate(456.298828 0.015625)"/>
      <use xlink:href="#DejaVuSans-6f" transform="translate(484.082031 0.015625)"/>
      <use xlink:href="#DejaVuSans-6e" transform="translate(545.263672 0.015625)"/>
      <use xlink:href="#DejaVuSans-61" transform="translate(608.642578 0.015625)"/>
      <use xlink:href="#DejaVuSans-6c" transform="translate(669.921875 0.015625)"/>
      <use xlink:href="#DejaVuSans-2c" transform="translate(697.705078 0.015625)"/>
      <use xlink:href="#DejaVuSans-20" transform="translate(729.492188 0.015625)"/>
      <use xlink:href="#DejaVuSans-6e" transform="translate(761.279297 0.015625)"/>
      <use xlink:href="#DejaVuSans-6f" transform="translate(824.658203 0.015625)"/>
      <use xlink:href="#DejaVuSans-20" transform="translate(885.839844 0.015625)"/>
      <use xlink:href="#DejaVuSans-3a9" transform="translate(917.626953 0.015625)"/>
      <use xlink:href="#DejaVuSans-30" transform="translate(995 -16.390625) scale(0.7)"/>
     </g>
    </g>
    <g id="PathCollection_8">
     <g>
      <use xlink:href="#mb05e6129ea" x="599.960625" y="137.4625" style="fill: #59c7eb; stroke: #59c7eb; stroke-width: 2.43"/>
     </g>
    </g>
    <g id="text_11">
     <!-- interventional, marginal $\hat{\Omega}_0$ -->
     <g transform="translate(635.960625 142.7125) scale(0.2 -0.2)">
      <defs>
       <path id="DejaVuSans-6d" d="M 3328 2828 
Q 3544 3216 3844 3400 
Q 4144 3584 4550 3584 
Q 5097 3584 5394 3201 
Q 5691 2819 5691 2113 
L 5691 0 
L 5113 0 
L 5113 2094 
Q 5113 2597 4934 2840 
Q 4756 3084 4391 3084 
Q 3944 3084 3684 2787 
Q 3425 2491 3425 1978 
L 3425 0 
L 2847 0 
L 2847 2094 
Q 2847 2600 2669 2842 
Q 2491 3084 2119 3084 
Q 1678 3084 1418 2786 
Q 1159 2488 1159 1978 
L 1159 0 
L 581 0 
L 581 3500 
L 1159 3500 
L 1159 2956 
Q 1356 3278 1631 3431 
Q 1906 3584 2284 3584 
Q 2666 3584 2933 3390 
Q 3200 3197 3328 2828 
z
" transform="scale(0.015625)"/>
       <path id="DejaVuSans-67" d="M 2906 1791 
Q 2906 2416 2648 2759 
Q 2391 3103 1925 3103 
Q 1463 3103 1205 2759 
Q 947 2416 947 1791 
Q 947 1169 1205 825 
Q 1463 481 1925 481 
Q 2391 481 2648 825 
Q 2906 1169 2906 1791 
z
M 3481 434 
Q 3481 -459 3084 -895 
Q 2688 -1331 1869 -1331 
Q 1566 -1331 1297 -1286 
Q 1028 -1241 775 -1147 
L 775 -588 
Q 1028 -725 1275 -790 
Q 1522 -856 1778 -856 
Q 2344 -856 2625 -561 
Q 2906 -266 2906 331 
L 2906 616 
Q 2728 306 2450 153 
Q 2172 0 1784 0 
Q 1141 0 747 490 
Q 353 981 353 1791 
Q 353 2603 747 3093 
Q 1141 3584 1784 3584 
Q 2172 3584 2450 3431 
Q 2728 3278 2906 2969 
L 2906 3500 
L 3481 3500 
L 3481 434 
z
" transform="scale(0.015625)"/>
      </defs>
      <use xlink:href="#DejaVuSans-69" transform="translate(0 0.734375)"/>
      <use xlink:href="#DejaVuSans-6e" transform="translate(27.783203 0.734375)"/>
      <use xlink:href="#DejaVuSans-74" transform="translate(91.162109 0.734375)"/>
      <use xlink:href="#DejaVuSans-65" transform="translate(130.371094 0.734375)"/>
      <use xlink:href="#DejaVuSans-72" transform="translate(191.894531 0.734375)"/>
      <use xlink:href="#DejaVuSans-76" transform="translate(233.007812 0.734375)"/>
      <use xlink:href="#DejaVuSans-65" transform="translate(292.1875 0.734375)"/>
      <use xlink:href="#DejaVuSans-6e" transform="translate(353.710938 0.734375)"/>
      <use xlink:href="#DejaVuSans-74" transform="translate(417.089844 0.734375)"/>
      <use xlink:href="#DejaVuSans-69" transform="translate(456.298828 0.734375)"/>
      <use xlink:href="#DejaVuSans-6f" transform="translate(484.082031 0.734375)"/>
      <use xlink:href="#DejaVuSans-6e" transform="translate(545.263672 0.734375)"/>
      <use xlink:href="#DejaVuSans-61" transform="translate(608.642578 0.734375)"/>
      <use xlink:href="#DejaVuSans-6c" transform="translate(669.921875 0.734375)"/>
      <use xlink:href="#DejaVuSans-2c" transform="translate(697.705078 0.734375)"/>
      <use xlink:href="#DejaVuSans-20" transform="translate(729.492188 0.734375)"/>
      <use xlink:href="#DejaVuSans-6d" transform="translate(761.279297 0.734375)"/>
      <use xlink:href="#DejaVuSans-61" transform="translate(858.691406 0.734375)"/>
      <use xlink:href="#DejaVuSans-72" transform="translate(919.970703 0.734375)"/>
      <use xlink:href="#DejaVuSans-67" transform="translate(961.083984 0.734375)"/>
      <use xlink:href="#DejaVuSans-69" transform="translate(1024.560547 0.734375)"/>
      <use xlink:href="#DejaVuSans-6e" transform="translate(1052.34375 0.734375)"/>
      <use xlink:href="#DejaVuSans-61" transform="translate(1115.722656 0.734375)"/>
      <use xlink:href="#DejaVuSans-6c" transform="translate(1177.001953 0.734375)"/>
      <use xlink:href="#DejaVuSans-20" transform="translate(1204.785156 0.734375)"/>
      <use xlink:href="#DejaVuSans-302" transform="translate(1309.254395 31.015625)"/>
      <use xlink:href="#DejaVuSans-3a9" transform="translate(1236.572266 0.734375)"/>
      <use xlink:href="#DejaVuSans-30" transform="translate(1313.945312 -15.671875) scale(0.7)"/>
     </g>
    </g>
   </g>
  </g>
 </g>
 <defs>
  <clipPath id="p42f6408cae">
   <rect x="115.560625" y="7.2" width="446.4" height="332.64"/>
  </clipPath>
 </defs>
</svg>
